# Blender v2.79 (sub 0) OBJ File: ''
# www.blender.org
mtllib building_1_floor.mtl
o Mesh_0007_Mesh_0007Mesh
v 3.138099 -0.000000 5.358258
v 4.706310 -0.000000 4.708683
v 2.353155 -0.000000 2.354342
v 2.353155 -0.000000 2.354342
v 1.569049 -0.000000 2.679129
v 3.138099 -0.000000 5.358258
v 1.569889 -0.000000 6.007833
v 3.138099 -0.000000 5.358258
v 1.569049 -0.000000 2.679129
v 1.569049 -0.000000 2.679129
v 0.784944 -0.000000 3.003917
v 1.569889 -0.000000 6.007833
v 0.001678 -0.000000 6.657408
v 1.569889 -0.000000 6.007833
v 0.784944 -0.000000 3.003917
v 0.784944 -0.000000 3.003917
v 0.000839 -0.000000 3.328704
v 0.001678 -0.000000 6.657408
v -0.000001 0.000000 0.000000
v -0.000594 0.000000 -3.328111
v -0.784699 0.000000 -3.003323
v -0.000001 0.000000 0.000000
v -0.784699 0.000000 -3.003323
v -1.568805 0.000000 -2.678535
v -0.000001 0.000000 0.000000
v -1.568805 0.000000 -2.678535
v -2.352910 0.000000 -2.353748
v -1.177938 -0.000000 6.168795
v 0.001678 -0.000000 6.657408
v 0.000839 -0.000000 3.328704
v 0.000839 -0.000000 3.328704
v -0.588969 -0.000000 3.084397
v -1.177938 -0.000000 6.168795
v -0.000001 0.000000 0.000000
v -1.176752 -0.000000 2.840930
v -0.588969 -0.000000 3.084397
v -3.529068 -0.000000 5.194925
v -2.353503 -0.000000 5.681859
v -1.176752 -0.000000 2.840930
v -1.176752 -0.000000 2.840930
v -1.764534 -0.000000 2.597462
v -3.529068 -0.000000 5.194925
v -0.000001 0.000000 0.000000
v -2.354342 -0.000000 2.353156
v -1.764534 -0.000000 2.597462
v -6.657406 0.000000 0.001678
v -6.007833 0.000000 1.569889
v -3.003917 0.000000 0.784945
v -3.003917 0.000000 0.784945
v -3.328703 0.000000 0.000839
v -6.657406 0.000000 0.001678
v -5.358258 -0.000000 3.138101
v -2.679129 -0.000000 1.569050
v -3.003917 0.000000 0.784945
v -3.003917 0.000000 0.784945
v -6.007833 0.000000 1.569889
v -5.358258 -0.000000 3.138101
v -5.358258 -0.000000 3.138101
v -4.708684 -0.000000 4.706312
v -2.354342 -0.000000 2.353156
v -2.679129 -0.000000 1.569050
v -0.000001 0.000000 0.000000
v -2.352910 0.000000 -2.353748
v -2.678339 0.000000 -1.569281
v -6.007041 0.000000 -1.568443
v -3.003521 0.000000 -0.784221
v -2.678339 0.000000 -1.569281
v -2.678339 0.000000 -1.569281
v -5.356677 0.000000 -3.138563
v -6.007041 0.000000 -1.568443
v -0.000001 0.000000 0.000000
v -3.003521 0.000000 -0.784221
v -3.328703 0.000000 0.000839
v -0.000001 0.000000 0.000000
v 0.784220 0.000000 -3.003520
v -0.000594 0.000000 -3.328111
v -0.000001 0.000000 0.000000
v 1.569281 0.000000 -2.678338
v 0.784220 0.000000 -3.003520
v -0.000001 0.000000 0.000000
v 2.354341 0.000000 -2.353155
v 1.569281 0.000000 -2.678338
v -0.000001 0.000000 0.000000
v 2.678289 0.000000 -1.569400
v 2.354341 0.000000 -2.353155
v 6.007140 0.000000 -1.568205
v 5.356578 0.000000 -3.138800
v 2.678289 0.000000 -1.569400
v 3.003570 0.000000 -0.784102
v 6.657406 -0.000000 -0.001678
v 6.007140 0.000000 -1.568205
v 3.003570 0.000000 -0.784102
v 3.003570 0.000000 -0.784102
v 3.328702 -0.000000 -0.000839
v 6.657406 -0.000000 -0.001678
v 5.194923 -0.000000 3.529067
v 2.597461 -0.000000 1.764534
v 2.353155 -0.000000 2.354342
v 2.353155 -0.000000 2.354342
v 4.706310 -0.000000 4.708683
v 5.194923 -0.000000 3.529067
v -0.000001 0.000000 0.000000
v 2.597461 -0.000000 1.764534
v 2.840929 -0.000000 1.176751
v 6.168793 -0.000000 1.177937
v 3.084396 0.000000 0.588969
v 2.840929 -0.000000 1.176751
v 2.840929 -0.000000 1.176751
v 5.681858 -0.000000 2.353502
v 6.168793 -0.000000 1.177937
v -0.000001 0.000000 0.000000
v 3.084396 0.000000 0.588969
v 3.328702 -0.000000 -0.000839
v 2.353155 -0.000000 2.354342
v -0.000001 0.000000 0.000000
v 1.569049 -0.000000 2.679129
v 1.569049 -0.000000 2.679129
v -0.000001 0.000000 0.000000
v 0.784944 -0.000000 3.003917
v 0.784944 -0.000000 3.003917
v -0.000001 0.000000 0.000000
v 0.000839 -0.000000 3.328704
v -1.568802 0.000000 -6.006893
v -0.784699 0.000000 -3.003323
v -0.000594 0.000000 -3.328111
v -0.000594 0.000000 -3.328111
v -0.001187 0.000000 -6.656221
v -1.568802 0.000000 -6.006893
v -3.138205 0.000000 -5.356824
v -1.568805 0.000000 -2.678535
v -0.784699 0.000000 -3.003323
v -0.784699 0.000000 -3.003323
v -1.568802 0.000000 -6.006893
v -3.138205 0.000000 -5.356824
v -3.138205 0.000000 -5.356824
v -4.705820 0.000000 -4.707497
v -2.352910 0.000000 -2.353748
v -2.352910 0.000000 -2.353748
v -1.568805 0.000000 -2.678535
v -3.138205 0.000000 -5.356824
v 0.000839 -0.000000 3.328704
v -0.000001 0.000000 0.000000
v -0.588969 -0.000000 3.084397
v -2.353503 -0.000000 5.681859
v -1.177938 -0.000000 6.168795
v -0.588969 -0.000000 3.084397
v -0.588969 -0.000000 3.084397
v -1.176752 -0.000000 2.840930
v -2.353503 -0.000000 5.681859
v -1.176752 -0.000000 2.840930
v -0.000001 0.000000 0.000000
v -1.764534 -0.000000 2.597462
v -4.708684 -0.000000 4.706312
v -3.529068 -0.000000 5.194925
v -1.764534 -0.000000 2.597462
v -1.764534 -0.000000 2.597462
v -2.354342 -0.000000 2.353156
v -4.708684 -0.000000 4.706312
v -3.003917 0.000000 0.784945
v -0.000001 0.000000 0.000000
v -3.328703 0.000000 0.000839
v -2.679129 -0.000000 1.569050
v -0.000001 0.000000 0.000000
v -3.003917 0.000000 0.784945
v -2.354342 -0.000000 2.353156
v -0.000001 0.000000 0.000000
v -2.679129 -0.000000 1.569050
v -5.356677 0.000000 -3.138563
v -2.678339 0.000000 -1.569281
v -2.352910 0.000000 -2.353748
v -2.352910 0.000000 -2.353748
v -4.705820 0.000000 -4.707497
v -5.356677 0.000000 -3.138563
v -3.003521 0.000000 -0.784221
v -0.000001 0.000000 0.000000
v -2.678339 0.000000 -1.569281
v -6.007041 0.000000 -1.568443
v -6.657406 0.000000 0.001678
v -3.328703 0.000000 0.000839
v -3.328703 0.000000 0.000839
v -3.003521 0.000000 -0.784221
v -6.007041 0.000000 -1.568443
v 1.568441 0.000000 -6.007041
v -0.001187 0.000000 -6.656221
v -0.000594 0.000000 -3.328111
v -0.000594 0.000000 -3.328111
v 0.784220 0.000000 -3.003520
v 1.568441 0.000000 -6.007041
v 3.138562 0.000000 -5.356676
v 1.568441 0.000000 -6.007041
v 0.784220 0.000000 -3.003520
v 0.784220 0.000000 -3.003520
v 1.569281 0.000000 -2.678338
v 3.138562 0.000000 -5.356676
v 4.708683 0.000000 -4.706311
v 3.138562 0.000000 -5.356676
v 1.569281 0.000000 -2.678338
v 4.708683 0.000000 -4.706311
v 5.356578 0.000000 -3.138800
v 4.708683 0.000000 -4.706311
v 2.354341 0.000000 -2.353155
v 2.354341 0.000000 -2.353155
v 2.678289 0.000000 -1.569400
v 5.356578 0.000000 -3.138800
v 2.678289 0.000000 -1.569400
v -0.000001 0.000000 0.000000
v 3.003570 0.000000 -0.784102
v -0.000001 0.000000 0.000000
v 3.328702 -0.000000 -0.000839
v 2.597461 -0.000000 1.764534
v -0.000001 0.000000 0.000000
v 2.353155 -0.000000 2.354342
v 5.681858 -0.000000 2.353502
v 2.840929 -0.000000 1.176751
v 2.597461 -0.000000 1.764534
v 2.597461 -0.000000 1.764534
v 5.194923 -0.000000 3.529067
v 5.681858 -0.000000 2.353502
v 3.084396 0.000000 0.588969
v -0.000001 0.000000 0.000000
v 2.840929 -0.000000 1.176751
v 6.168793 -0.000000 1.177937
v 6.657406 -0.000000 -0.001678
v 3.328702 -0.000000 -0.000839
v 3.328702 -0.000000 -0.000839
v 3.084396 0.000000 0.588969
v 6.168793 -0.000000 1.177937
v -1.757174 0.000000 -6.463350
v -3.327769 0.000000 -5.812788
v -3.138205 0.000000 -5.356824
v -3.138205 0.000000 -5.356824
v -1.568802 0.000000 -6.006893
v -1.757174 0.000000 -6.463350
vt 0.330213 0.730147
vt -0.009271 0.730147
vt 0.245342 0.115019
vt 0.245342 0.115019
vt 0.415084 0.115019
vt 0.330213 0.730147
vt 0.669697 0.730147
vt 0.330213 0.730147
vt 0.415084 0.115019
vt 0.415084 0.115019
vt 0.584826 0.115019
vt 0.669697 0.730147
vt 1.009181 0.730147
vt 0.669697 0.730147
vt 0.584826 0.115019
vt 0.584826 0.115019
vt 0.754568 0.115019
vt 1.009181 0.730147
vt 0.499955 -0.500110
vt 0.245342 -1.115110
vt 0.415084 -1.115110
vt 0.499955 -0.500110
vt 0.415084 -1.115110
vt 0.584826 -1.115109
vt 0.499955 -0.500110
vt 0.584826 -1.115109
vt 0.754568 -1.115110
vt 1.189749 0.549579
vt 1.009181 0.730147
vt 0.754568 0.115019
vt 0.754568 0.115019
vt 0.844851 0.024735
vt 1.189749 0.549579
vt 0.499955 -0.500110
vt 0.934825 -0.065239
vt 0.844851 0.024735
vt 1.549644 0.189684
vt 1.369696 0.369632
vt 0.934825 -0.065239
vt 0.934825 -0.065239
vt 1.024799 -0.155213
vt 1.549644 0.189684
vt 0.499955 -0.500110
vt 1.115083 -0.245497
vt 1.024799 -0.155213
vt 1.730211 -1.009336
vt 1.730211 -0.669852
vt 1.115083 -0.584981
vt 1.115083 -0.584981
vt 1.115083 -0.754723
vt 1.730211 -1.009336
vt 1.730211 -0.330368
vt 1.115083 -0.415239
vt 1.115083 -0.584981
vt 1.115083 -0.584981
vt 1.730211 -0.669852
vt 1.730211 -0.330368
vt 1.730211 -0.330368
vt 1.730212 0.009116
vt 1.115083 -0.245497
vt 1.115083 -0.415239
vt 0.499955 -0.500110
vt 0.754568 -1.115110
vt 0.874739 -0.995066
vt 1.489868 -1.249679
vt 0.994911 -0.874894
vt 0.874739 -0.995066
vt 0.874739 -0.995066
vt 1.249524 -1.490023
vt 1.489868 -1.249679
vt 0.499955 -0.500110
vt 0.994911 -0.874894
vt 1.115083 -0.754723
vt 0.499955 -0.500110
vt 0.125170 -0.995066
vt 0.245342 -1.115110
vt 0.499955 -0.500110
vt 0.004998 -0.874894
vt 0.125170 -0.995066
vt 0.499955 -0.500110
vt -0.115174 -0.754722
vt 0.004998 -0.874894
vt 0.499955 -0.500110
vt -0.115045 -0.585109
vt -0.115174 -0.754722
vt -0.730045 -0.330109
vt -0.730046 -0.670109
vt -0.115045 -0.585109
vt -0.115045 -0.415109
vt -0.730302 0.009116
vt -0.730045 -0.330109
vt -0.115045 -0.415109
vt -0.115045 -0.415109
vt -0.115174 -0.245497
vt -0.730302 0.009116
vt -0.189839 0.549579
vt 0.155058 0.024735
vt 0.245342 0.115019
vt 0.245342 0.115019
vt -0.009271 0.730147
vt -0.189839 0.549579
vt 0.499955 -0.500110
vt 0.155058 0.024735
vt 0.065084 -0.065239
vt -0.549734 0.189684
vt -0.024890 -0.155213
vt 0.065084 -0.065239
vt 0.065084 -0.065239
vt -0.369787 0.369632
vt -0.549734 0.189684
vt 0.499955 -0.500110
vt -0.024890 -0.155213
vt -0.115174 -0.245497
vt 0.245342 0.115019
vt 0.499955 -0.500110
vt 0.415084 0.115019
vt 0.415084 0.115019
vt 0.499955 -0.500110
vt 0.584826 0.115019
vt 0.584826 0.115019
vt 0.499955 -0.500110
vt 0.754568 0.115019
vt 0.330083 -1.730110
vt 0.415084 -1.115110
vt 0.245342 -1.115110
vt 0.245342 -1.115110
vt -0.009271 -1.730110
vt 0.330083 -1.730110
vt 0.669825 -1.730110
vt 0.584826 -1.115109
vt 0.415084 -1.115110
vt 0.415084 -1.115110
vt 0.330083 -1.730110
vt 0.669825 -1.730110
vt 0.669825 -1.730110
vt 1.009180 -1.730110
vt 0.754568 -1.115110
vt 0.754568 -1.115110
vt 0.584826 -1.115109
vt 0.669825 -1.730110
vt 0.754568 0.115019
vt 0.499955 -0.500110
vt 0.844851 0.024735
vt 1.369696 0.369632
vt 1.189749 0.549579
vt 0.844851 0.024735
vt 0.844851 0.024735
vt 0.934825 -0.065239
vt 1.369696 0.369632
vt 0.934825 -0.065239
vt 0.499955 -0.500110
vt 1.024799 -0.155213
vt 1.730212 0.009116
vt 1.549644 0.189684
vt 1.024799 -0.155213
vt 1.024799 -0.155213
vt 1.115083 -0.245497
vt 1.730212 0.009116
vt 1.115083 -0.584981
vt 0.499955 -0.500110
vt 1.115083 -0.754723
vt 1.115083 -0.415239
vt 0.499955 -0.500110
vt 1.115083 -0.584981
vt 1.115083 -0.245497
vt 0.499955 -0.500110
vt 1.115083 -0.415239
vt 1.249524 -1.490023
vt 0.874739 -0.995066
vt 0.754568 -1.115110
vt 0.754568 -1.115110
vt 1.009180 -1.730110
vt 1.249524 -1.490023
vt 0.994911 -0.874894
vt 0.499955 -0.500110
vt 0.874739 -0.995066
vt 1.489868 -1.249679
vt 1.730211 -1.009336
vt 1.115083 -0.754723
vt 1.115083 -0.754723
vt 0.994911 -0.874894
vt 1.489868 -1.249679
vt -0.249615 -1.490023
vt -0.009271 -1.730110
vt 0.245342 -1.115110
vt 0.245342 -1.115110
vt 0.125170 -0.995066
vt -0.249615 -1.490023
vt -0.489959 -1.249679
vt -0.249615 -1.490023
vt 0.125170 -0.995066
vt 0.125170 -0.995066
vt 0.004998 -0.874894
vt -0.489959 -1.249679
vt -0.730302 -1.009335
vt -0.489959 -1.249679
vt 0.004998 -0.874894
vt -0.730302 -1.009335
vt -0.730046 -0.670109
vt -0.730302 -1.009335
vt -0.115174 -0.754722
vt -0.115174 -0.754722
vt -0.115045 -0.585109
vt -0.730046 -0.670109
vt -0.115045 -0.585109
vt 0.499955 -0.500110
vt -0.115045 -0.415109
vt 0.499955 -0.500110
vt -0.115174 -0.245497
vt 0.155058 0.024735
vt 0.499955 -0.500110
vt 0.245342 0.115019
vt -0.369787 0.369632
vt 0.065084 -0.065239
vt 0.155058 0.024735
vt 0.155058 0.024735
vt -0.189839 0.549579
vt -0.369787 0.369632
vt -0.024890 -0.155213
vt 0.499955 -0.500110
vt 0.065084 -0.065239
vt -0.549734 0.189684
vt -0.730302 0.009116
vt -0.115174 -0.245497
vt -0.115174 -0.245497
vt -0.024890 -0.155213
vt -0.549734 0.189684
vt 0.329954 -1.828869
vt 0.669954 -1.828869
vt 0.669825 -1.730110
vt 0.669825 -1.730110
vt 0.330083 -1.730110
vt 0.329954 -1.828869
vn 0.0000 1.0000 0.0000
usemtl Tex_0008_0_dds
s 1
f 1/1/1 2/2/1 3/3/1
f 4/4/1 5/5/1 6/6/1
f 7/7/1 8/8/1 9/9/1
f 10/10/1 11/11/1 12/12/1
f 13/13/1 14/14/1 15/15/1
f 16/16/1 17/17/1 18/18/1
f 19/19/1 20/20/1 21/21/1
f 22/22/1 23/23/1 24/24/1
f 25/25/1 26/26/1 27/27/1
f 28/28/1 29/29/1 30/30/1
f 31/31/1 32/32/1 33/33/1
f 34/34/1 35/35/1 36/36/1
f 37/37/1 38/38/1 39/39/1
f 40/40/1 41/41/1 42/42/1
f 43/43/1 44/44/1 45/45/1
f 46/46/1 47/47/1 48/48/1
f 49/49/1 50/50/1 51/51/1
f 52/52/1 53/53/1 54/54/1
f 55/55/1 56/56/1 57/57/1
f 58/58/1 59/59/1 60/60/1
f 60/60/1 61/61/1 58/58/1
f 62/62/1 63/63/1 64/64/1
f 65/65/1 66/66/1 67/67/1
f 68/68/1 69/69/1 70/70/1
f 71/71/1 72/72/1 73/73/1
f 74/74/1 75/75/1 76/76/1
f 77/77/1 78/78/1 79/79/1
f 80/80/1 81/81/1 82/82/1
f 83/83/1 84/84/1 85/85/1
f 86/86/1 87/87/1 88/88/1
f 88/88/1 89/89/1 86/86/1
f 90/90/1 91/91/1 92/92/1
f 93/93/1 94/94/1 95/95/1
f 96/96/1 97/97/1 98/98/1
f 99/99/1 100/100/1 101/101/1
f 102/102/1 103/103/1 104/104/1
f 105/105/1 106/106/1 107/107/1
f 108/108/1 109/109/1 110/110/1
f 111/111/1 112/112/1 113/113/1
f 114/114/1 115/115/1 116/116/1
f 117/117/1 118/118/1 119/119/1
f 120/120/1 121/121/1 122/122/1
f 123/123/1 124/124/1 125/125/1
f 126/126/1 127/127/1 128/128/1
f 129/129/1 130/130/1 131/131/1
f 132/132/1 133/133/1 134/134/1
f 135/135/1 136/136/1 137/137/1
f 138/138/1 139/139/1 140/140/1
f 141/141/1 142/142/1 143/143/1
f 144/144/1 145/145/1 146/146/1
f 147/147/1 148/148/1 149/149/1
f 150/150/1 151/151/1 152/152/1
f 153/153/1 154/154/1 155/155/1
f 156/156/1 157/157/1 158/158/1
f 159/159/1 160/160/1 161/161/1
f 162/162/1 163/163/1 164/164/1
f 165/165/1 166/166/1 167/167/1
f 168/168/1 169/169/1 170/170/1
f 171/171/1 172/172/1 173/173/1
f 174/174/1 175/175/1 176/176/1
f 177/177/1 178/178/1 179/179/1
f 180/180/1 181/181/1 182/182/1
f 183/183/1 184/184/1 185/185/1
f 186/186/1 187/187/1 188/188/1
f 189/189/1 190/190/1 191/191/1
f 192/192/1 193/193/1 194/194/1
f 195/195/1 196/196/1 197/197/1
f 82/82/1 81/81/1 198/198/1
f 199/199/1 200/200/1 201/201/1
f 202/202/1 203/203/1 204/204/1
f 205/205/1 206/206/1 207/207/1
f 92/92/1 208/208/1 209/209/1
f 210/210/1 211/211/1 212/212/1
f 213/213/1 214/214/1 215/215/1
f 216/216/1 217/217/1 218/218/1
f 219/219/1 220/220/1 221/221/1
f 222/222/1 223/223/1 224/224/1
f 225/225/1 226/226/1 227/227/1
f 228/228/1 229/229/1 230/230/1
f 231/231/1 232/232/1 233/233/1
