# Blender v2.79 (sub 0) OBJ File: ''
# www.blender.org
mtllib chest.mtl
o Mesh_0008.rip
v -5.000000 0.000000 2.500000
v 5.000000 0.000000 2.500000
v 5.000000 4.000000 2.500000
v -5.000000 4.000000 2.500000
v 5.000000 0.000000 2.500000
v 5.000000 0.000000 -2.500000
v 5.000000 4.000000 -2.500000
v 5.000000 4.000000 2.500000
v 5.000000 0.000000 -2.500000
v -5.000000 0.000000 -2.500000
v -5.000000 4.000000 -2.500000
v 5.000000 4.000000 -2.500000
v -5.000000 0.000000 -2.500000
v -5.000000 0.000000 2.500000
v -5.000000 4.000000 2.500000
v -5.000000 4.000000 -2.500000
v -5.000000 4.000000 2.500000
v 5.000000 4.000000 2.500000
v 5.000000 5.265481 1.373842
v -5.000000 5.265481 1.373842
v 5.000000 5.265481 -1.373842
v 5.000000 5.265481 1.373842
v 5.000000 4.000000 -2.500000
v -5.000000 4.000000 -2.500000
v -5.000000 5.265481 -1.373842
v 5.000000 5.265481 -1.373842
v -5.000000 5.265481 1.373842
v -5.000000 5.265481 -1.373842
v 5.000000 5.736620 0.000000
v -5.000000 5.736620 0.000000
v 5.000000 5.736620 0.000000
v -5.000000 5.736620 0.000000
v -0.738815 1.490672 2.785304
v 0.590610 1.490672 2.785304
v 0.590610 3.517500 2.785304
v -0.738815 3.517500 2.785304
v -0.738815 1.490672 2.500000
v 0.590610 1.490672 2.500000
v 0.590610 1.490672 2.785304
v -0.738815 1.490672 2.785304
v 0.590610 1.490672 2.500000
v 0.590610 3.517500 2.500000
v 0.590610 3.517500 2.785304
v 0.590610 1.490672 2.785304
v 0.590610 3.517500 2.500000
v -0.738815 3.517500 2.500000
v -0.738815 3.517500 2.785304
v 0.590610 3.517500 2.785304
v -0.738815 3.517500 2.500000
v -0.738815 1.490672 2.500000
v -0.738815 1.490672 2.785304
v -0.738815 3.517500 2.785304
vt 0.337484 0.995160
vt 0.996072 0.995160
vt 0.996072 0.731724
vt 0.337484 0.731724
vt 0.337499 0.995160
vt 0.008205 0.995160
vt 0.008205 0.731724
vt 0.337499 0.731724
vt 0.996072 0.495730
vt 0.337484 0.495730
vt 0.337484 0.232294
vt 0.996072 0.232294
vt 0.008205 0.995160
vt 0.337499 0.995160
vt 0.337499 0.731724
vt 0.008205 0.731724
vt 0.337484 0.731724
vt 0.996072 0.731724
vt 0.996072 0.618815
vt 0.337484 0.618815
vt 0.082372 0.648381
vt 0.263331 0.648381
vt 0.996072 0.731724
vt 0.337484 0.731724
vt 0.337484 0.618815
vt 0.996072 0.618815
vt 0.263331 0.648381
vt 0.082372 0.648381
vt 0.996072 0.522494
vt 0.337484 0.522494
vt 0.172852 0.617353
vt 0.172852 0.617353
vt 0.037448 0.598892
vt 0.125002 0.598892
vt 0.125002 0.465408
vt 0.037448 0.465408
vt 0.037448 0.446599
vt 0.125002 0.446599
vt 0.125002 0.465389
vt 0.037448 0.465389
vt 0.018668 0.598867
vt 0.018668 0.465382
vt 0.037457 0.465382
vt 0.037457 0.598867
vt 0.125002 0.446599
vt 0.037448 0.446599
vt 0.037448 0.465389
vt 0.125002 0.465389
vt 0.018668 0.465382
vt 0.018668 0.598867
vt 0.037457 0.598867
vt 0.037457 0.465382
vn 0.0000 0.0000 1.0000
vn 1.0000 0.0000 0.0000
vn 0.0000 0.0000 -1.0000
vn -1.0000 0.0000 0.0000
vn 0.0000 0.6648 0.7470
vn 0.0000 0.8326 0.5538
vn 0.0000 0.6648 -0.7470
vn 0.0000 0.8326 -0.5538
vn 0.0000 1.0000 0.0000
vn 0.0000 -1.0000 0.0000
usemtl Material.001
s 1
f 1/1/1 2/2/1 3/3/1
f 3/3/1 4/4/1 1/1/1
f 5/5/2 6/6/2 7/7/2
f 7/7/2 8/8/2 5/5/2
f 9/9/3 10/10/3 11/11/3
f 11/11/3 12/12/3 9/9/3
f 13/13/4 14/14/4 15/15/4
f 15/15/4 16/16/4 13/13/4
f 17/17/5 18/18/5 19/19/6
f 19/19/6 20/20/6 17/17/5
f 8/8/2 7/7/2 21/21/2
f 21/21/2 22/22/2 8/8/2
f 23/23/7 24/24/7 25/25/8
f 25/25/8 26/26/8 23/23/7
f 16/16/4 15/15/4 27/27/4
f 27/27/4 28/28/4 16/16/4
f 20/20/6 19/19/6 29/29/9
f 29/29/9 30/30/9 20/20/6
f 22/22/2 21/21/2 31/31/2
f 26/26/8 25/25/8 30/30/9
f 30/30/9 29/29/9 26/26/8
f 28/28/4 27/27/4 32/32/4
f 33/33/1 34/34/1 35/35/1
f 35/35/1 36/36/1 33/33/1
f 37/37/10 38/38/10 39/39/10
f 39/39/10 40/40/10 37/37/10
f 41/41/2 42/42/2 43/43/2
f 43/43/2 44/44/2 41/41/2
f 45/45/9 46/46/9 47/47/9
f 47/47/9 48/48/9 45/45/9
f 49/49/4 50/50/4 51/51/4
f 51/51/4 52/52/4 49/49/4
