# Blender v2.79 (sub 0) OBJ File: ''
# www.blender.org
mtllib stand.mtl
o Mesh_0009_Mesh_0009Mesh
v 2.553054 1.328826 0.005589
v 1.013206 1.328825 2.672683
v 1.481296 1.328825 3.483438
v 1.013206 1.328825 2.672683
v -2.066489 1.328825 2.672682
v -2.534579 1.328825 3.483438
v -2.534579 1.328825 3.483438
v 1.481296 1.328825 3.483438
v 1.013206 1.328825 2.672683
v -4.542516 1.328826 0.005589
v -2.534579 1.328825 3.483438
v -2.066489 1.328825 2.672682
v 1.481296 1.328825 3.483438
v 3.489234 1.328826 0.005589
v 2.553054 1.328826 0.005589
v -5.515426 11.515590 -6.685318
v -5.515426 11.515590 6.696495
v -5.515426 10.130289 6.696496
v -2.066489 1.328825 2.672682
v -3.606335 1.328826 0.005589
v -4.542516 1.328826 0.005589
v 3.489234 1.328826 0.005589
v 1.481297 1.328826 -3.472260
v 1.013206 1.328826 -2.661505
v -5.515426 10.130289 6.696496
v -5.515426 10.130289 -6.685317
v -5.515426 11.515590 -6.685318
v -5.515426 11.515590 6.696495
v -6.309440 11.515590 6.696496
v -6.309440 9.398453 6.696496
v -6.309440 9.398453 6.696496
v -5.515426 10.130289 6.696496
v -5.515426 11.515590 6.696495
v 4.310099 14.697775 -6.685317
v 4.310099 14.697774 6.696496
v 5.256158 14.697774 6.696496
v -6.309441 11.515590 -6.685317
v -6.309440 11.515590 6.696496
v -5.515426 11.515590 6.696495
v -6.309441 9.398453 -6.685317
v -6.309440 9.398453 6.696496
v -6.309440 11.515590 6.696496
v 5.256158 14.697774 6.696496
v 5.256158 14.697775 -6.685317
v 4.310099 14.697775 -6.685317
v -5.515426 11.515590 6.696495
v -5.515426 11.515590 -6.685318
v -6.309441 11.515590 -6.685317
v -6.309440 11.515590 6.696496
v -6.309441 11.515590 -6.685317
v -6.309441 9.398453 -6.685317
v -6.309441 11.515590 -6.685317
v -5.515426 11.515590 -6.685318
v -5.515426 10.130289 -6.685317
v 1.013206 1.328826 -2.661505
v 2.553054 1.328826 0.005589
v 3.489234 1.328826 0.005589
v -2.066488 1.328826 -2.661506
v 1.481297 1.328826 -3.472260
v -3.606335 1.328826 0.005589
v -2.534578 1.328826 -3.472260
v -2.534578 1.328826 -3.472260
v -4.542516 1.328826 0.005589
v -3.606335 1.328826 0.005589
v 1.481297 1.328826 -3.472260
v -2.066488 1.328826 -2.661506
v 5.256158 9.398453 6.696496
v 5.256158 14.697774 6.696496
v 4.310099 14.697774 6.696496
v -6.309440 9.398453 6.696496
v 5.256158 9.398453 6.696496
v -5.515426 10.130289 6.696496
v 5.256158 9.398453 -6.685317
v 4.310099 14.697775 -6.685317
v 5.256158 14.697775 -6.685317
v -5.515426 10.130289 -6.685317
v 4.310099 14.697775 -6.685317
v -6.309441 9.398453 -6.685317
v -6.309441 11.515590 -6.685317
v 5.256158 9.398453 -6.685317
v 5.256158 9.398453 6.696496
v -6.309440 9.398453 6.696496
v -6.309441 9.398453 -6.685317
v -5.515426 10.130289 6.696496
v 4.310099 14.697774 6.696496
v 4.310099 14.697775 -6.685317
v -5.515426 10.130289 -6.685317
v 5.256158 14.697775 -6.685317
v 5.256158 14.697774 6.696496
v 5.256158 9.398453 6.696496
v 5.256158 9.398453 -6.685317
v -2.534579 0.171182 3.483438
v 1.481296 0.171182 3.483438
v 1.481296 1.328825 3.483438
v -2.534579 1.328825 3.483438
v 1.481297 0.171184 -3.472260
v -2.534578 0.171184 -3.472260
v -2.534578 1.328826 -3.472260
v 1.481297 1.328826 -3.472260
v 3.489234 1.328826 0.005589
v 1.481296 1.328825 3.483438
v 1.481296 0.171182 3.483438
v 3.489234 0.171184 0.005589
v 1.481297 1.328826 -3.472260
v 1.481297 0.171184 -3.472260
v -4.542516 0.171184 0.005589
v -2.534579 0.171182 3.483438
v -2.534579 1.328825 3.483438
v -4.542516 1.328826 0.005589
v -2.534578 0.171184 -3.472260
v -2.534578 1.328826 -3.472260
v -1.060091 3.018324 0.929551
v 0.006809 3.018324 0.929551
v 0.006809 9.398453 0.929551
v -1.060091 9.398453 0.929551
v -1.593541 3.018324 0.005589
v -1.593541 9.398453 0.005589
v -1.060091 3.018324 -0.918373
v -1.060091 9.398453 -0.918373
v 0.006809 3.018324 -0.918373
v 0.006809 9.398453 -0.918373
v 0.540258 3.018324 0.005589
v 0.540258 9.398453 0.005589
v 0.006809 3.018324 0.929551
v 0.006809 9.398453 0.929551
v -2.066489 1.328825 2.672682
v 1.013206 1.328825 2.672683
v 0.006809 3.018324 0.929551
v -1.060091 3.018324 0.929551
v 0.540258 3.018324 0.005589
v -3.606335 1.328826 0.005589
v 2.553054 1.328826 0.005589
v -1.593541 3.018324 0.005589
v 0.006809 3.018324 -0.918373
v -2.066488 1.328826 -2.661506
v 1.013206 1.328826 -2.661505
v -1.060091 3.018324 -0.918373
vt 0.755191 -0.434169
vt 0.853903 -0.491161
vt 0.883910 -0.473836
vt 0.853903 -0.491161
vt 0.853903 -0.605144
vt 0.883910 -0.622468
vt 0.883910 -0.622468
vt 0.883910 -0.473836
vt 0.853903 -0.491161
vt 0.755191 -0.696784
vt 0.883910 -0.622468
vt 0.853903 -0.605144
vt 0.883910 -0.473836
vt 0.755191 -0.399520
vt 0.755191 -0.434169
vt 0.009809 -0.854346
vt 0.617030 -0.854346
vt 0.617030 -0.790808
vt 0.853903 -0.605144
vt 0.755191 -0.662135
vt 0.755191 -0.696784
vt 0.755191 -0.399520
vt 0.626471 -0.473836
vt 0.656478 -0.491160
vt 0.617030 -0.790808
vt 0.009809 -0.790808
vt 0.009809 -0.854346
vt 0.891813 -0.498456
vt 0.891813 -0.462426
vt 0.987881 -0.462426
vt 0.987881 -0.462426
vt 0.954673 -0.498456
vt 0.891813 -0.498456
vt 0.009808 -0.299440
vt 0.617028 -0.299440
vt 0.617028 -0.250832
vt 0.009809 -0.891368
vt 0.617034 -0.891368
vt 0.617034 -0.855052
vt 0.009809 -0.986782
vt 0.617030 -0.986782
vt 0.617030 -0.891273
vt 0.617028 -0.250832
vt 0.009808 -0.250832
vt 0.009808 -0.299440
vt 0.617034 -0.855052
vt 0.009809 -0.855052
vt 0.009809 -0.891368
vt 0.617030 -0.891273
vt 0.009809 -0.891273
vt 0.009809 -0.986782
vt 0.891813 -0.462426
vt 0.891813 -0.498456
vt 0.954673 -0.498456
vt 0.656478 -0.491160
vt 0.755191 -0.434169
vt 0.755191 -0.399520
vt 0.656478 -0.605144
vt 0.626471 -0.473836
vt 0.755191 -0.662135
vt 0.626471 -0.622468
vt 0.626471 -0.622468
vt 0.755191 -0.696784
vt 0.755191 -0.662135
vt 0.626471 -0.473836
vt 0.656478 -0.605144
vt 0.987881 -0.987234
vt 0.747416 -0.987234
vt 0.747416 -0.944305
vt 0.987881 -0.462426
vt 0.987881 -0.987234
vt 0.954673 -0.498456
vt 0.987881 -0.987234
vt 0.747416 -0.944305
vt 0.747416 -0.987234
vt 0.954673 -0.498456
vt 0.747416 -0.944305
vt 0.987881 -0.462426
vt 0.891813 -0.462426
vt 0.050205 -0.354776
vt 0.547927 -0.354776
vt 0.547927 -0.784946
vt 0.050205 -0.784946
vt 0.617028 -0.790938
vt 0.617028 -0.299440
vt 0.009808 -0.299440
vt 0.009808 -0.790938
vt 0.009809 -0.250773
vt 0.617030 -0.250773
vt 0.617030 -0.010207
vt 0.009809 -0.010207
vt 0.713186 -0.391846
vt 0.917186 -0.391846
vt 0.917186 -0.333040
vt 0.713186 -0.333040
vt 0.713186 -0.391846
vt 0.917186 -0.391846
vt 0.917186 -0.333040
vt 0.713186 -0.333040
vt 0.815186 -0.333040
vt 0.638516 -0.333040
vt 0.638516 -0.391846
vt 0.815186 -0.391846
vt 0.991856 -0.333040
vt 0.991856 -0.391846
vt 0.815186 -0.391846
vt 0.991856 -0.391846
vt 0.991856 -0.333040
vt 0.815186 -0.333040
vt 0.638516 -0.391846
vt 0.638516 -0.333040
vt 0.923253 -0.328659
vt 0.982987 -0.328659
vt 0.982987 -0.009824
vt 0.923253 -0.009824
vt 0.873331 -0.328659
vt 0.873331 -0.009824
vt 0.823411 -0.328659
vt 0.823411 -0.009824
vt 0.763676 -0.328659
vt 0.763676 -0.009824
vt 0.713755 -0.328659
vt 0.713755 -0.009824
vt 0.663834 -0.328659
vt 0.663834 -0.009824
vt 0.853903 -0.605144
vt 0.853903 -0.491161
vt 0.776631 -0.535773
vt 0.776631 -0.560531
vt 0.755191 -0.523394
vt 0.755191 -0.662135
vt 0.755191 -0.434169
vt 0.755191 -0.572909
vt 0.733750 -0.535773
vt 0.656478 -0.605144
vt 0.656478 -0.491160
vt 0.733750 -0.560531
vn 0.0000 1.0000 0.0000
vn 1.0000 0.0000 0.0000
vn 0.0000 0.0000 1.0000
vn -1.0000 0.0000 0.0000
vn 0.0000 0.0000 -1.0000
vn 0.0000 -1.0000 0.0000
vn -0.4215 0.9068 0.0000
vn 0.8660 0.0000 0.5000
vn 0.8660 0.0000 -0.5000
vn -0.8660 0.0000 0.5000
vn -0.8660 0.0000 -0.5000
vn -0.5000 0.0000 0.8660
vn -0.5000 0.0000 -0.8660
vn 0.5000 0.0000 -0.8660
vn -0.3215 0.7659 0.5567
vn 0.3215 0.7659 0.5567
vn 0.6429 0.7659 0.0000
vn -0.6429 0.7659 0.0000
vn 0.3215 0.7659 -0.5567
vn -0.3215 0.7659 -0.5567
usemtl Tex_0009_0_dds
s 1
f 1/1/1 2/2/1 3/3/1
f 4/4/1 5/5/1 6/6/1
f 7/7/1 8/8/1 9/9/1
f 10/10/1 11/11/1 12/12/1
f 13/13/1 14/14/1 15/15/1
f 16/16/2 17/17/2 18/18/2
f 19/19/1 20/20/1 21/21/1
f 22/22/1 23/23/1 24/24/1
f 25/25/2 26/26/2 27/27/2
f 28/28/3 29/29/3 30/30/3
f 31/31/3 32/32/3 33/33/3
f 34/34/1 35/35/1 36/36/1
f 37/37/1 38/38/1 39/39/1
f 40/40/4 41/41/4 42/42/4
f 43/43/1 44/44/1 45/45/1
f 46/46/1 47/47/1 48/48/1
f 49/49/4 50/50/4 51/51/4
f 52/52/5 53/53/5 54/54/5
f 55/55/1 56/56/1 57/57/1
f 58/58/1 55/55/1 59/59/1
f 60/60/1 58/58/1 61/61/1
f 62/62/1 63/63/1 64/64/1
f 65/65/1 62/62/1 66/66/1
f 67/67/3 68/68/3 69/69/3
f 70/70/3 71/71/3 69/69/3
f 69/69/3 72/72/3 70/70/3
f 73/73/5 74/74/5 75/75/5
f 76/76/5 77/77/5 73/73/5
f 73/73/5 78/78/5 76/76/5
f 76/76/5 78/78/5 79/79/5
f 80/80/6 81/81/6 82/82/6
f 82/82/6 83/83/6 80/80/6
f 84/84/7 85/85/7 86/86/7
f 86/86/7 87/87/7 84/84/7
f 88/88/2 89/89/2 90/90/2
f 90/90/2 91/91/2 88/88/2
f 92/92/3 93/93/3 94/94/3
f 94/94/3 95/95/3 92/92/3
f 96/96/5 97/97/5 98/98/5
f 98/98/5 99/99/5 96/96/5
f 100/100/2 101/101/8 102/102/8
f 102/102/8 103/103/2 100/100/2
f 104/104/9 100/100/2 103/103/2
f 103/103/2 105/105/9 104/104/9
f 106/106/4 107/107/10 108/108/10
f 108/108/10 109/109/4 106/106/4
f 110/110/11 106/106/4 109/109/4
f 109/109/4 111/111/11 110/110/11
f 112/112/12 113/113/3 114/114/3
f 114/114/3 115/115/12 112/112/12
f 116/116/4 112/112/12 115/115/12
f 115/115/12 117/117/4 116/116/4
f 118/118/13 116/116/4 117/117/4
f 117/117/4 119/119/13 118/118/13
f 120/120/14 118/118/13 119/119/13
f 119/119/13 121/121/14 120/120/14
f 122/122/2 120/120/14 121/121/14
f 121/121/14 123/123/2 122/122/2
f 124/124/8 122/122/2 123/123/2
f 123/123/2 125/125/8 124/124/8
f 126/126/15 127/127/16 128/128/16
f 128/128/16 129/129/15 126/126/15
f 130/130/17 128/128/16 127/127/16
f 131/131/18 126/126/15 129/129/15
f 127/127/16 132/132/17 130/130/17
f 129/129/15 133/133/18 131/131/18
f 134/134/19 130/130/17 132/132/17
f 135/135/20 131/131/18 133/133/18
f 132/132/17 136/136/19 134/134/19
f 133/133/18 137/137/20 135/135/20
f 137/137/20 134/134/19 136/136/19
f 136/136/19 135/135/20 137/137/20
